# Alias OBJ Model File
# Exported from SketchUp, (c) 2000-2012 Trimble Navigation Limited
# File units = millimeters

mtllib janelaExterna.mtl

g Mesh1 Model

usemtl Metal_Aluminum_Anodized
v 3541 -669.7 -788.5
vt 2.58166 0.00933217
vn 0 0 1
v 3541 -667.5 -788.5
vt 2.58166 0.0109361
v 77 -667.5 -788.5
vt 0.0561388 0.0109361
v 77 -669.7 -788.5
vt 0.0561388 0.00933217
f 1/1/1 2/2/1 3/3/1 4/4/1 

v 3541 -677.5 -788.5
vt -2.58166 0.00364538
vn 1.21009e-14 -7.39181e-16 -1
vt -2.58166 0.00933217
vt -2.58166 0.0109361
v 3541 879.5 -788.5
vt -2.58166 1.13882
v 3541 1429.5 -788.5
vt -2.58166 1.53981
v 3541 1497.5 -788.5
vt -2.58166 1.58938
v 3618 1497.5 -788.5
vt -2.6378 1.58938
v 3618 -682.5 -788.5
vt -2.6378 -5.55112e-17
v 3541 -682.5 -788.5
vt -2.58166 -5.55112e-17
f 5/5/2 1/6/2 2/7/2 6/8/2 7/9/2 8/10/2 9/11/2 10/12/2 11/13/2 

vt 1.11022e-16 0.00933217
vn 1 0 -0
vt 1.11022e-16 0.00364538
v 3541 -677.5 -798.5
vt 0.00729076 0.00364538
v 3541 -669.7 -798.5
vt 0.00729076 0.00933217
f 1/14/3 5/15/3 12/16/3 13/17/3 

v 77 -677.5 -788.5
vt 0.0561388 0
vn -2.0352e-19 1 7.04992e-17
vt 2.58166 0
vt 2.58166 0.00729076
v 77 -677.5 -798.5
vt 0.0561388 0.00729076
f 14/18/4 5/19/4 12/20/4 15/21/4 

vn -2.34995e-18 1.03735e-15 1
vt 2.58166 0.00364538
vt 0.0561388 0.00364538
v 77 -682.5 -788.5
f 11/19/5 5/22/5 14/23/5 16/18/5 

v 3541 -632.5 -846.5
vt 0.0422864 0.0364538
vn 1 -1.05346e-14 2.05067e-15
v 3541 -576.5 -846.5
vt 0.0422864 0.077282
v 3541 -576.5 -836.5
vt 0.0349956 0.077282
v 3541 -632.5 -836.5
vt 0.0349956 0.0364538
v 3541 -632.5 -803.5
vt 0.0109361 0.0364538
v 3541 -657.5 -803.5
vt 0.0109361 0.0182269
v 3541 -657.5 -808.5
vt 0.0145815 0.0182269
v 3541 -667.5 -808.5
vt 0.0145815 0.0109361
vt 5.32907e-15 0.0109361
vt 5.32907e-15 0.00933217
vt 5.32907e-15 0.00364538
vt 5.32907e-15 2.72005e-14
v 3541 -682.5 -894.5
vt 0.077282 2.72005e-14
v 3541 -632.5 -894.5
vt 0.077282 0.0364538
f 17/24/6 18/25/6 19/26/6 20/27/6 21/28/6 22/29/6 23/30/6 24/31/6 2/32/6 1/33/6 13/17/6 12/16/6 5/34/6 11/35/6 25/36/6 26/37/6 

vt -2.58166 0.0364538
vn -1.82428e-30 -1.26898e-14 -1
v 2713 -632.5 -846.5
vt -1.97798 0.0364538
v 2713 -576.5 -846.5
vt -1.97798 0.077282
vt -2.58166 0.077282
f 17/38/7 27/39/7 28/40/7 18/41/7 

v 2713 -632.5 -894.5
vt 1.97798 0.077282
vn -3.54199e-16 1 -9.39989e-16
vt 1.97798 0.0422864
vt 2.58166 0.0422864
vt 2.58166 0.077282
f 29/42/8 27/43/8 17/44/8 26/45/8 

vn 1 -4.11733e-16 -1.77233e-15
v 2713 1429.5 -894.5
vt 0.077282 1.53981
v 2713 1429.5 -846.5
vt 0.0422864 1.53981
v 2713 1429.5 -846.292
vt 0.042135 1.53981
f 27/24/9 29/37/9 30/46/9 31/47/9 32/48/9 28/25/9 

v 2675 -632.5 -894.5
vt 1.95028 -0.46114
vn 6.57382e-29 4.60604e-15 1
vt 1.97798 -0.46114
vt 1.97798 1.04221
v 2675 1429.5 -894.5
vt 1.95028 1.04221
f 33/49/10 29/50/10 30/51/10 34/52/10 

vt 2.58166 -0.46114
vn 2.5814e-18 6.76792e-16 1
v 1847 -632.5 -894.5
vt 1.3466 -0.46114
v 1771 -632.5 -894.5
vt 1.29119 -0.46114
v 943 -632.5 -894.5
vt 0.687518 -0.46114
v 905 -632.5 -894.5
vt 0.659813 -0.46114
v 77 -632.5 -894.5
vt 0.0561388 -0.46114
v 77 -682.5 -894.5
vt 0.0561388 -0.497594
vt 2.58166 -0.497594
f 26/53/11 29/50/11 33/49/11 35/54/11 36/55/11 37/56/11 38/57/11 39/58/11 40/59/11 25/60/11 

vt 1.3466 0.077282
vn -6.81151e-18 1 -4.08153e-15
v 1847 -632.5 -818.5
vt 1.3466 0.0218723
v 2675 -632.5 -818.5
vt 1.95028 0.0218723
vt 1.95028 0.077282
f 35/61/12 41/62/12 42/63/12 33/64/12 

vt -1.95028 0.0364538
vn 0 -2.81997e-15 -1
vt -1.3466 0.0364538
v 1847 -576.5 -818.5
vt -1.3466 0.077282
v 2675 -576.5 -818.5
vt -1.95028 0.077282
f 42/65/13 41/66/13 43/67/13 44/68/13 

v 2675 -576.5 -808.5
vt 1.95028 0.0145815
vn -1.3623e-17 1 -3.38396e-15
v 1847 -576.5 -808.5
vt 1.3466 0.0145815
f 45/69/14 44/63/14 43/62/14 46/70/14 

v 2675 -642.5 -793.5
vt -0.00364538 0.029163
vn -1 4.39565e-16 -6.27197e-15
v 2675 1429.5 -793.5
vt -0.00364538 1.53981
v 2675 1429.5 -818.5
vt -0.0218723 1.53981
vt -0.0218723 0.077282
vt -0.0145815 0.077282
v 2675 -632.5 -808.5
vt -0.0145815 0.0364538
v 2675 -632.5 -803.5
vt -0.0109361 0.0364538
v 2675 -642.5 -803.5
vt -0.0109361 0.029163
f 47/71/15 48/72/15 49/73/15 44/74/15 45/75/15 50/76/15 51/77/15 52/78/15 

vt 1.95028 1.53981
vn -7.81949e-17 4.47512e-15 1
vt 1.95028 0.029163
v 2713 -642.5 -793.5
vt 1.97798 0.029163
v 2713 1429.5 -793.5
vt 1.97798 1.53981
f 48/79/16 47/80/16 53/81/16 54/82/16 

vt -1.95028 0.578521
vn 1.55853e-15 -1 4.51195e-15
vt -1.95028 0.585812
v 2713 -642.5 -803.5
vt -1.97798 0.585812
vt -1.97798 0.578521
f 47/83/17 52/84/17 55/85/17 53/86/17 

vn -8.99611e-18 6.67123e-16 1
v 1847 -632.5 -803.5
v 1847 -642.5 -803.5
vt 1.3466 -0.468431
v 1771 -642.5 -803.5
vt 1.29119 -0.468431
v 1771 -632.5 -803.5
v 943 -632.5 -803.5
v 943 -642.5 -803.5
vt 0.687518 -0.468431
v 905 -642.5 -803.5
vt 0.659813 -0.468431
v 905 -632.5 -803.5
v 77 -632.5 -803.5
v 77 -657.5 -803.5
vt 0.0561388 -0.479367
vt 2.58166 -0.479367
v 2713 -632.5 -803.5
vt 1.97798 -0.468431
vt 1.95028 -0.468431
f 51/49/18 56/54/18 57/87/18 58/88/18 59/55/18 60/56/18 61/89/18 62/90/18 63/57/18 64/58/18 65/91/18 22/92/18 21/53/18 66/50/18 55/93/18 52/94/18 

vt 1.95028 0.0109361
vn -4.42748e-17 1 -1.40998e-15
v 1847 -632.5 -808.5
vt 1.3466 0.0109361
f 51/95/19 50/69/19 67/70/19 56/96/19 

vt 1.3466 0.0364538
vn -9.42781e-32 2.81997e-15 1
vt 1.95028 0.0364538
f 67/97/20 50/98/20 45/64/20 46/61/20 

vt -1.29119 0.585812
vn -7.42096e-17 -1 3.71799e-15
vt -1.3466 0.585812
v 1847 -642.5 -793.5
vt -1.3466 0.578521
v 1771 -642.5 -793.5
vt -1.29119 0.578521
f 58/99/21 57/100/21 68/101/21 69/102/21 

vt 1.29119 0.0109361
vn -7.83324e-17 1 1.97398e-15
v 1771 -632.5 -808.5
vt 1.29119 0.0145815
v 943 -632.5 -808.5
vt 0.687518 0.0145815
vt 0.687518 0.0109361
f 59/103/22 70/104/22 71/105/22 60/106/22 

vt 0.687518 0.0364538
vn -6.81151e-18 3.12211e-15 1
vt 1.29119 0.0364538
v 1771 -576.5 -808.5
vt 1.29119 0.077282
v 943 -576.5 -808.5
vt 0.687518 0.077282
f 71/107/23 70/108/23 72/109/23 73/110/23 

v 943 -576.5 -818.5
vt 0.687518 0.0218723
vn -5.44921e-17 1 -4.51195e-15
v 1771 -576.5 -818.5
vt 1.29119 0.0218723
f 74/111/24 73/105/24 72/104/24 75/112/24 

vt 0.0145815 0.077282
vn 1 -3.66128e-15 -2.98715e-14
vt 0.0218723 0.077282
v 943 1429.5 -818.5
vt 0.0218723 1.53981
v 943 1429.5 -793.5
vt 0.00364538 1.53981
v 943 -642.5 -793.5
vt 0.00364538 0.029163
vt 0.0109361 0.029163
vt 0.0145815 0.0364538
f 73/113/25 74/114/25 76/115/25 77/116/25 78/117/25 61/118/25 60/28/25 71/119/25 

vn 1 -3.61736e-15 7.88234e-15
v 943 1429.5 -894.5
v 943 -632.5 -818.5
vt 0.0218723 0.0364538
f 37/37/26 79/46/26 76/115/26 74/114/26 80/120/26 

vn -1.77614e-30 -3.39162e-16 1
vt 0.687518 1.04221
v 905 1429.5 -894.5
vt 0.659813 1.04221
f 38/57/27 37/56/27 79/121/27 81/122/27 

v 1.46281e-12 -682.5 -894.5
vt 1.25258e-16 0
vn 1.62079e-15 3.7203e-16 1
vt 0.0561388 0.0364538
v 77 1429.5 -894.5
vt 0.0561388 1.53981
vt 0.659813 1.53981
vt 0.687518 1.53981
v 1771 1429.5 -894.5
vt 1.29119 1.53981
v 1847 1429.5 -894.5
vt 1.3466 1.53981
v 3541 1429.5 -894.5
vt 2.58166 1.53981
v 3541 1497.5 -894.5
vt 2.58166 1.58938
v 1.38297e-12 1497.5 -894.5
vt 6.70497e-17 1.58938
f 82/123/28 40/18/28 39/124/28 83/125/28 81/126/28 79/127/28 84/128/28 85/129/28 34/79/28 30/82/28 86/130/28 87/131/28 88/132/28 

vt -0.0561388 0.574876
vn 3.66229e-17 -1 7.98104e-17
v 1.46281e-12 -682.5 -788.5
vt -1.04827e-15 0.574876
vt -1.04827e-15 0.652158
vt -0.0561388 0.652158
f 16/133/29 89/134/29 82/135/29 40/136/29 

v 1.38297e-12 1497.5 -788.5
vt -4.65853e-16 1.58938
vn -1.6324e-15 -9.06112e-17 -1
v 77 1497.5 -788.5
vt -0.0561388 1.58938
v 77 1429.5 -788.5
vt -0.0561388 1.53981
v 77 879.5 -788.5
vt -0.0561388 1.13882
vt -0.0561388 0.0109361
vt -0.0561388 0.00933217
vt -0.0561388 0.00364538
vt -0.0561388 0
vt -5.24061e-16 0
f 90/137/30 91/138/30 92/139/30 93/140/30 3/141/30 4/142/30 14/143/30 16/144/30 89/145/30 

vt -2.6378 2.22045e-16
vn 0 -1 -0
vt -2.58166 1.77636e-15
vt -0.0561388 2.22045e-16
vt 5.82079e-17 2.22045e-16
vt 5.82079e-17 0.077282
v 3618 1497.5 -894.5
vt -2.6378 0.077282
f 9/146/31 8/147/31 91/148/31 90/149/31 88/150/31 87/41/31 94/151/31 

vn -6.39362e-16 -3.03118e-17 -1
f 7/9/32 92/139/32 91/138/32 8/10/32 

v 1771 1429.5 -793.5
vt 1.29119 0.00364538
vn -2.29494e-16 1 -2.99573e-15
v 1771 1429.5 -818.5
vt 0.687518 0.00364538
v 905 1429.5 -793.5
vt 0.659813 0.00364538
v 905 1429.5 -840.241
vt 0.659813 0.0377228
v 77 1429.5 -840.241
vt 0.0561388 0.0377228
vt 0.0561388 -4.44089e-15
vt 2.58166 -2.88658e-15
v 3541 1429.5 -846.292
vt 2.58166 0.042135
vt 1.97798 0.042135
vt 1.97798 0.00364538
vt 1.95028 0.00364538
v 1847 1429.5 -818.5
v 1847 1429.5 -793.5
vt 1.3466 0.00364538
f 95/152/33 96/112/33 76/111/33 77/153/33 97/154/33 98/155/33 99/156/33 92/157/33 7/158/33 100/159/33 32/160/33 54/161/33 48/162/33 49/63/33 101/62/33 102/163/33 

vn -4.35937e-16 1 -2.57411e-28
f 79/110/34 76/111/34 96/112/34 84/109/34 

vn -7.42096e-17 1.35217e-16 1
v 905 -642.5 -793.5
f 97/122/35 103/90/35 78/89/35 77/121/35 

vn -1 3.28237e-15 2.02241e-14
vt -0.0377228 1.53981
v 905 -576.5 -846.5
vt -0.0422864 0.077282
v 905 -576.5 -836.5
vt -0.0349956 0.077282
v 905 -632.5 -836.5
vt -0.0349956 0.0364538
f 103/71/36 97/72/36 98/164/36 104/165/36 105/166/36 106/167/36 63/77/36 62/78/36 

v 905 -632.5 -846.5
vt -0.0422864 0.0364538
vn -1 3.00969e-15 -3.1846e-14
v 905 1429.5 -846.5
vt -0.0422864 1.53981
vt -0.077282 1.53981
vt -0.077282 0.0364538
f 107/168/37 104/165/37 98/164/37 108/169/37 81/170/37 38/171/37 

vt -0.659813 0.0364538
vn 1.25255e-30 6.24421e-15 -1
v 77 -632.5 -846.5
vt -0.0561388 0.0364538
v 77 -576.5 -846.5
vt -0.0561388 0.077282
vt -0.659813 0.077282
f 107/172/38 109/173/38 110/174/38 104/175/38 

vt 0.0561388 0.0422864
vn 2.17968e-16 1 4.11245e-15
vt 0.659813 0.0422864
vt 0.659813 0.077282
vt 0.0561388 0.077282
f 109/176/39 107/177/39 38/178/39 39/179/39 

vn -1 5.27043e-16 2.02356e-14
f 83/170/40 39/171/40 109/168/40 110/165/40 99/164/40 

vt -2.22045e-16 0.00933217
vn -1 4.59132e-16 -8.64602e-16
vt -2.22045e-16 0.0109361
v 77 -667.5 -808.5
vt -0.0145815 0.0109361
v 77 -657.5 -808.5
vt -0.0145815 0.0182269
vt -0.0109361 0.0182269
v 77 -632.5 -836.5
v 77 -576.5 -836.5
vt -0.077282 0
vt -2.22045e-16 0
vt -2.22045e-16 0.00364538
vt -0.00729076 0.00364538
v 77 -669.7 -798.5
vt -0.00729076 0.00933217
f 4/180/41 3/181/41 111/182/41 112/183/41 65/184/41 64/77/41 113/167/41 114/166/41 110/165/41 109/168/41 39/171/41 40/185/41 16/186/41 14/187/41 15/188/41 115/189/41 

vt 0.0561388 7.77156e-16
vn 0 1 -0
vt 2.58166 7.77156e-16
vt 2.58166 0.0145815
vt 0.0561388 0.0145815
f 3/190/42 2/191/42 24/192/42 111/193/42 

vt 4.61853e-14 1.13882
vn 1 -6.29023e-17 1.77158e-14
vt 4.58522e-14 0.0109361
vt 4.75175e-14 1.53981
f 6/194/43 2/195/43 24/31/43 23/30/43 22/29/43 21/28/43 20/27/43 19/26/43 18/25/43 100/48/43 7/196/43 

vn -8.14078e-19 -5.92193e-15 1
vt 2.58166 0.0182269
vt 0.0561388 0.0182269
f 24/2/44 23/197/44 112/198/44 111/3/44 

vn 4.82091e-33 -1 -5.92193e-15
vt -0.0561388 0.0145815
vt -2.58166 0.0145815
f 22/7/45 65/141/45 112/199/45 23/200/45 

vn -1 5.40857e-16 -1.63963e-14
vt -9.99201e-16 0.0109361
vt -1.44329e-15 1.13882
vt -1.11022e-15 1.53981
f 99/164/46 110/165/46 114/166/46 113/167/46 64/77/46 65/184/46 112/183/46 111/182/46 3/201/46 93/202/46 92/203/46 

usemtl Translucent_Glass_Blue
vt -3.0315 -22.8007
vn 5.51649e-19 0.00312034 -0.999995
vt -3.0315 56.176
vt -35.6299 56.176
vt -35.6299 -22.8007
f 110/204/47 99/205/47 98/206/47 104/207/47 

usemtl Metal_Aluminum_Anodized
vn 5.08749e-17 1 -6.05517e-15
f 83/179/48 99/156/48 98/155/48 108/177/48 81/178/48 

vn 2.72461e-16 1 6.76792e-15
vt 0.0561388 0.0349956
vt 0.659813 0.0349956
f 110/176/49 114/208/49 105/209/49 104/177/49 

vn -2.25162e-30 -6.24421e-15 1
vt 0.659813 0.0364538
f 113/124/50 106/210/50 105/178/50 114/179/50 

vn 1.83911e-16 1 -2.81997e-15
vt 0.659813 0.0109361
f 64/3/51 63/211/51 106/209/51 113/208/51 

vn -3.06518e-17 1 6.67887e-16
vt 2.58166 0.0349956
v 2713 -632.5 -836.5
vt 1.97798 0.0349956
vt 1.97798 0.0109361
f 21/2/52 20/212/52 116/213/52 66/214/52 

vt 1.97798 0.0364538
vn -7.21228e-31 1.26898e-14 1
vt 2.58166 0.0364538
v 2713 -576.5 -836.5
f 116/215/53 20/216/53 19/45/53 117/42/53 

vn 4.08691e-17 1 -1.24079e-14
f 19/212/54 18/44/54 28/43/54 117/213/54 

usemtl Translucent_Glass_Blue
vt -106.811 56.2761
vn 3.95066e-15 0.000103533 -1
vt -139.409 56.2761
vt -139.409 -22.7003
vt -106.811 -22.7003
f 32/217/55 100/218/55 18/219/55 28/220/55 

usemtl Metal_Aluminum_Anodized
vn 9.35108e-16 1 -8.53199e-15
f 31/43/56 32/160/56 100/159/56 86/45/56 30/42/56 

vn 1 4.02716e-16 -3.2288e-14
f 86/46/57 100/48/57 18/25/57 17/24/57 26/37/57 

vt 2.58166 1.11022e-16
vn -9.61263e-15 5.93947e-16 1
v 3618 -682.5 -894.5
vt 2.6378 1.11022e-16
vt 2.6378 1.58938
f 25/221/58 118/222/58 94/223/58 87/131/58 86/130/58 26/216/58 

vt -2.58166 0.652158
vn -3.70211e-17 -1 7.95211e-17
vt -2.6378 0.652158
vt -2.6378 0.574876
vt -2.58166 0.574876
f 25/224/59 118/225/59 10/226/59 11/227/59 

vt -0.077282 1.11022e-16
vn -1 3.70211e-17 -3.93956e-33
vt 0 1.11022e-16
vt -2.22045e-16 1.58938
vt -0.077282 1.58938
f 118/228/60 10/229/60 9/230/60 94/231/60 

vn 8.85117e-21 -1 5.29177e-17
f 40/136/61 25/224/61 11/227/61 16/133/61 

vn 1 -4.39699e-16 2.13006e-15
f 116/27/62 117/26/62 28/25/62 32/48/62 54/116/62 53/117/62 55/118/62 66/28/62 

vt -1.14975 0.00364538
vn -1 -8.67682e-15 7.06559e-43
vt -1.14975 0.00933217
vt -1.15704 0.00933217
vt -1.15704 0.00364538
f 14/232/63 4/233/63 115/234/63 15/235/63 

vt -2.58166 1.11022e-16
vt -0.0561388 1.11022e-16
vt -0.0561388 0.00729076
vt -2.58166 0.00729076
f 1/236/31 4/237/31 115/238/31 13/239/31 

vt 2.58166 -0.493949
vn -1.51498e-18 -4.6913e-17 1
vt 2.58166 -0.488262
vt 0.0561388 -0.488262
vt 0.0561388 -0.493949
f 12/240/64 13/241/64 115/242/64 15/243/64 

vt -0.659813 0.585812
vn -4.00732e-15 -1 1.35217e-16
vt -0.687518 0.585812
vt -0.687518 0.578521
vt -0.659813 0.578521
f 62/244/65 61/245/65 78/246/65 103/247/65 

vn -1.08984e-15 1 -2.37471e-15
f 85/61/66 101/62/66 49/63/66 34/64/66 

vt -0.0218723 0.0364538
vn -1 4.52894e-16 1.93672e-15
f 42/248/67 44/74/67 49/73/67 34/170/67 33/171/67 

vt 0 0
vn 1 3.66229e-17 -3.89719e-33
vt 0.077282 0
vt 0.077282 1.58938
vt 2.22045e-16 1.58938
f 89/249/68 82/250/68 88/251/68 90/252/68 

v 1771 -632.5 -818.5
vt -1.29119 0.0364538
vn 1.67007e-31 -3.12211e-15 -1
vt -0.687518 0.0364538
vt -0.687518 0.077282
vt -1.29119 0.077282
f 119/253/69 80/254/69 74/255/69 75/256/69 

vn 2.72461e-17 1 -3.11681e-15
f 37/110/70 80/111/70 119/112/70 36/109/70 

